<svg xmlns="http://www.w3.org/2000/svg" xmlns:xlink="http://www.w3.org/1999/xlink" version="1.1" width="1000" height="1000" viewBox="0 0 1000 1000" xml:space="preserve">
<desc>Created with Fabric.js 3.5.0</desc>
<defs>
</defs>
<rect x="0" y="0" width="100%" height="100%" fill="#121111"/>
<g transform="matrix(4.8356 0 0 4.8356 500.0009 500.0002)" id="370272">
<g style="" vector-effect="non-scaling-stroke">
		<g transform="matrix(1 0 0 1 -64.9942 10.3361)" id="Path">
<path style="stroke: none; stroke-width: 1; stroke-dasharray: none; stroke-linecap: butt; stroke-dashoffset: 0; stroke-linejoin: miter; stroke-miterlimit: 4; is-custom-font: none; font-file-url: none; fill: rgb(130,27,239); fill-rule: nonzero; opacity: 1;" transform=" translate(-29.0058, -29.836)" d="M 29.0073404 20.7944681 L 24.5079787 20.7944681 C 23.6267021 20.7944681 23.1375532 21.84 23.6873404 22.5453191 L 29.296383 29.7395745 C 29.4985106 29.998883 29.1670213 30.3411702 28.9143617 30.1316489 L 21.9045745 24.375 C 21.2173404 23.8107447 20.198617 24.312766 20.198617 25.217234 L 20.198617 29.8370745 C 20.198617 34.8303191 24.1421277 38.8776064 29.0073404 38.8776064 L 29.0073404 38.8776064 C 33.8179787 38.8776064 37.7392553 34.9132979 37.8120213 29.9760638 L 37.8120213 29.9719149 C 37.8868085 24.9226596 33.9230851 20.7944681 29.0073404 20.7944681 Z" stroke-linecap="round"/>
</g>
		<g transform="matrix(1 0 0 1 -85.0791 -10.2821)" id="Path">
<path style="stroke: none; stroke-width: 1; stroke-dasharray: none; stroke-linecap: butt; stroke-dashoffset: 0; stroke-linejoin: miter; stroke-miterlimit: 4; is-custom-font: none; font-file-url: none; fill: rgb(244,203,28); fill-rule: nonzero; opacity: 1;" transform=" translate(-8.9209, -9.2179)" d="M 9.01287234 8.92228723 L 16.0226596 14.6789362 C 16.7098936 15.2431915 17.728617 14.7411702 17.728617 13.8367021 L 17.728617 9.21893617 C 17.728617 4.22569149 13.7851064 0.178404255 8.91989362 0.178404255 L 8.91989362 0.178404255 C 4.05670213 0.178404255 0.113191489 4.22569149 0.113191489 9.2168617 L 0.113191489 9.21893617 C 0.113191489 14.2101064 4.05670213 18.2573936 8.91989362 18.2573936 L 13.4212766 18.2573936 C 14.3025532 18.2573936 14.7917021 17.2118617 14.2419149 16.5065426 L 8.63085106 9.3143617 C 8.4287234 9.05297872 8.76021277 8.71276596 9.01287234 8.92228723 Z" stroke-linecap="round"/>
</g>
		<g transform="matrix(1 0 0 1 -82.7415 7.9328)" id="Path">
<path style="stroke: none; stroke-width: 1; stroke-dasharray: none; stroke-linecap: butt; stroke-dashoffset: 0; stroke-linejoin: miter; stroke-miterlimit: 4; is-custom-font: none; font-file-url: none; fill: rgb(22,193,160); fill-rule: nonzero; opacity: 1;" transform=" translate(-11.2585, -27.4328)" d="M 10.7653191 27.5489362 L 14.4581915 22.5183511 C 14.9796809 21.808883 14.4864894 20.7923936 13.6193617 20.7923936 L 6.16893617 20.7923936 C 5.40691489 20.7923936 4.78840426 21.4271809 4.78840426 22.2092553 L 4.78840426 32.6562766 C 4.78840426 33.4383511 5.40691489 34.0731383 6.16893617 34.0731383 L 16.3480851 34.0731383 C 17.1101064 34.0731383 17.728617 33.4383511 17.728617 32.6562766 L 17.728617 25.0077128 C 17.728617 24.117766 16.7381915 23.6115957 16.0469149 24.1468085 L 11.1453191 27.9368617 C 10.8946809 28.1360106 10.5753191 27.8082447 10.7653191 27.5489362 Z" stroke-linecap="round"/>
</g>
		<g transform="matrix(1 0 0 1 -67.3313 -7.882)" id="Path">
<path style="stroke: none; stroke-width: 1; stroke-dasharray: none; stroke-linecap: butt; stroke-dashoffset: 0; stroke-linejoin: miter; stroke-miterlimit: 4; is-custom-font: none; font-file-url: none; fill: rgb(242,54,95); fill-rule: nonzero; opacity: 1;" transform=" translate(-26.6687, -11.6181)" d="M 20.198617 6.39351064 L 20.198617 14.0420745 C 20.198617 14.9320213 21.1890426 15.4381915 21.8803191 14.9029787 L 26.7819149 11.1129255 C 27.0345745 10.9179255 27.3519149 11.2456915 27.1619149 11.5029255 L 23.4690426 16.5335106 C 22.9475532 17.2429787 23.4407447 18.2594681 24.3078723 18.2594681 L 31.7582979 18.2594681 C 32.5203191 18.2594681 33.1388298 17.6246809 33.1388298 16.8426064 L 33.1388298 6.39351064 C 33.1388298 5.61143617 32.5203191 4.97664894 31.7582979 4.97664894 L 21.5791489 4.97664894 C 20.8171277 4.97664894 20.198617 5.61143617 20.198617 6.39351064 Z" stroke-linecap="round"/>
</g>
		<g transform="matrix(1 0 0 1 -36.3786 -0.3612)" id="Path">
<path style="stroke: none; stroke-width: 1; stroke-dasharray: none; stroke-linecap: butt; stroke-dashoffset: 0; stroke-linejoin: miter; stroke-miterlimit: 4; is-custom-font: none; font-file-url: none; fill: rgb(255,255,255); fill-rule: nonzero; opacity: 1;" transform=" translate(-8.6214, -19.1387)" d="M 6.4375762 14.5736842 C 6.4375762 15.1381579 6.80474601 15.5958947 7.53908563 15.9468947 C 8.27140784 16.2999474 9.16512337 16.6078421 10.2182148 16.8767368 C 11.2692888 17.1456316 12.3223803 17.4822632 13.3754717 17.8907368 C 14.4265457 18.2992105 15.3202612 18.9827368 16.0546009 19.9413158 C 16.7869231 20.8998947 17.1561103 22.0965789 17.1561103 23.5334211 C 17.1561103 25.7030526 16.3592308 27.3718421 14.7674891 28.5418421 C 13.1757475 29.7097895 11.1885922 30.2947895 8.80804064 30.2947895 C 4.54322206 30.2947895 1.63612482 28.6198421 0.0867489115 25.2658421 L 4.73891147 22.6035789 C 5.34817126 24.4345263 6.70387518 25.35 8.80804064 25.35 C 10.7185341 25.35 11.6747896 24.7444737 11.6747896 23.5334211 C 11.6747896 22.971 11.3076197 22.5132632 10.5732801 22.1602105 C 9.83894049 21.8092105 8.94522496 21.4910526 7.89415094 21.2098421 C 6.84105951 20.9286316 5.78998549 20.5755789 4.73689405 20.1527368 C 3.68380261 19.7298947 2.7921045 19.0607368 2.05776488 18.1452632 C 1.32342525 17.2297895 0.956255443 16.0823684 0.956255443 14.7009474 C 0.956255443 12.6175263 1.71076923 10.9754211 3.21979681 9.77873684 C 4.72882438 8.58205263 6.60502177 7.98268421 8.84637155 7.98268421 C 10.5349492 7.98268421 12.0722206 8.37063158 13.4561684 9.14447368 C 14.8401161 9.92036842 15.9335559 11.0246842 16.7364877 12.4615263 L 12.1690566 14.9965263 C 11.5033091 13.5596842 10.3957475 12.8412632 8.84637155 12.8412632 C 8.15439768 12.8412632 7.57943396 12.9972632 7.12349782 13.3051579 C 6.66554427 13.6151053 6.4375762 14.0379474 6.4375762 14.5736842 Z" stroke-linecap="round"/>
</g>
		<g transform="matrix(1 0 0 1 -13.0825 2.9311)" id="Shape">
<path style="stroke: none; stroke-width: 1; stroke-dasharray: none; stroke-linecap: butt; stroke-dashoffset: 0; stroke-linejoin: miter; stroke-miterlimit: 4; is-custom-font: none; font-file-url: none; fill: rgb(255,255,255); fill-rule: nonzero; opacity: 1;" transform=" translate(-31.9175, -22.4312)" d="M 32.8939768 7.98063158 C 35.6901161 7.98063158 38.0787373 9.05826316 40.0578229 11.2135263 C 42.0369086 13.3687895 43.0274601 16.0105263 43.0274601 19.1366842 C 43.0274601 22.2628421 42.0369086 24.9045789 40.0578229 27.0598421 C 38.0767199 29.2151053 35.6901161 30.2927368 32.8939768 30.2927368 C 29.9868795 30.2927368 27.7435123 29.2643684 26.1658926 27.2076316 L 26.3091292 36.8816842 L 20.9508708 36.8816842 L 20.8076343 8.57178947 L 26.1658926 8.57178947 L 26.1658926 11.0657368 C 27.7435123 9.009 29.9868795 7.98063158 32.8939768 7.98063158 Z M 27.7838607 23.4246316 C 28.8631785 24.5392105 30.2350218 25.0934211 31.8953556 25.0934211 C 33.5556894 25.0934211 34.9335849 24.5371579 36.0270247 23.4246316 C 37.1204644 22.3121053 37.6671843 20.8834737 37.6671843 19.1366842 C 37.6671843 17.3898947 37.1204644 15.9612632 36.0270247 14.8466842 C 34.9335849 13.7341579 33.5556894 13.1778947 31.8953556 13.1778947 C 30.2350218 13.1778947 28.8631785 13.7341579 27.7838607 14.8466842 C 26.7045428 15.9592105 26.1638752 17.3898947 26.1638752 19.1366842 C 26.1658926 20.8834737 26.7045428 22.3141579 27.7838607 23.4246316 Z" stroke-linecap="round"/>
</g>
		<g transform="matrix(1 0 0 1 11.8356 -0.3633)" id="Shape">
<path style="stroke: none; stroke-width: 1; stroke-dasharray: none; stroke-linecap: butt; stroke-dashoffset: 0; stroke-linejoin: miter; stroke-miterlimit: 4; is-custom-font: none; font-file-url: none; fill: rgb(255,255,255); fill-rule: nonzero; opacity: 1;" transform=" translate(-56.8357, -19.1367)" d="M 62.5883309 8.57178947 L 67.9465893 8.57178947 L 67.9465893 29.7015789 L 62.5883309 29.7015789 L 62.5883309 27.2076316 C 60.9824673 29.2643684 58.7249782 30.2927368 55.817881 30.2927368 C 53.0499855 30.2927368 50.6754862 29.2151053 48.6943832 27.0598421 C 46.7152975 24.9045789 45.724746 22.2628421 45.724746 19.1366842 C 45.724746 16.0105263 46.7132801 13.3687895 48.6943832 11.2135263 C 50.6734688 9.05826316 53.0479681 7.98063158 55.817881 7.98063158 C 58.7249782 7.98063158 60.9824673 9.009 62.5883309 11.0657368 L 62.5883309 8.57178947 Z M 52.7029898 23.4246316 C 53.7823077 24.5392105 55.1541509 25.0934211 56.8144848 25.0934211 C 58.4748186 25.0934211 59.8527141 24.5371579 60.9461538 23.4246316 C 62.0395936 22.3121053 62.5863135 20.8834737 62.5863135 19.1366842 C 62.5863135 17.3898947 62.0395936 15.9612632 60.9461538 14.8466842 C 59.8527141 13.7341579 58.4748186 13.1778947 56.8144848 13.1778947 C 55.1541509 13.1778947 53.7823077 13.7341579 52.7029898 14.8466842 C 51.623672 15.9592105 51.0830044 17.3898947 51.0830044 19.1366842 C 51.0850218 20.8834737 51.623672 22.3141579 52.7029898 23.4246316 Z" stroke-linecap="round"/>
</g>
		<g transform="matrix(1 0 0 1 33.6399 -0.5737)" id="Path">
<path style="stroke: none; stroke-width: 1; stroke-dasharray: none; stroke-linecap: butt; stroke-dashoffset: 0; stroke-linejoin: miter; stroke-miterlimit: 4; is-custom-font: none; font-file-url: none; fill: rgb(255,255,255); fill-rule: nonzero; opacity: 1;" transform=" translate(-78.6399, -18.9263)" d="M 78.1627866 12.207 C 78.6610885 10.8543158 79.4841945 9.84031579 80.6341219 9.165 C 81.7820319 8.48968421 83.0630914 8.151 84.475283 8.151 L 84.475283 14.2370526 C 82.8411756 14.04 81.380566 14.3786842 80.0934543 15.2510526 C 78.8063425 16.1254737 78.1627866 17.5746316 78.1627866 19.6026316 L 78.1627866 29.7015789 L 72.8045283 29.7015789 L 72.8045283 8.57178947 L 78.1627866 8.57178947 L 78.1627866 12.207 L 78.1627866 12.207 Z" stroke-linecap="round"/>
</g>
		<g transform="matrix(1 0 0 1 52.1639 -4.5948)" id="Path">
<polygon style="stroke: none; stroke-width: 1; stroke-dasharray: none; stroke-linecap: butt; stroke-dashoffset: 0; stroke-linejoin: miter; stroke-miterlimit: 4; is-custom-font: none; font-file-url: none; fill: rgb(255,255,255); fill-rule: nonzero; opacity: 1;" points="9.5737,14.7964 3.3439,14.7964 -4.2154,5.1962 -4.2154,14.7964 -9.5737,14.7964 -9.5737,-14.7964 -4.2154,-14.7964 -4.2154,2.9999 2.9283,-6.3334 9.3235,-6.3334 0.9754,4.1042 "/>
</g>
		<g transform="matrix(1 0 0 1 67.0735 -4.5948)" id="Path">
<polygon style="stroke: none; stroke-width: 1; stroke-dasharray: none; stroke-linecap: butt; stroke-dashoffset: 0; stroke-linejoin: miter; stroke-miterlimit: 4; is-custom-font: none; font-file-url: none; fill: rgb(255,255,255); fill-rule: nonzero; opacity: 1;" points="-2.6791,14.7964 -2.6791,-14.7964 2.6791,-14.7964 2.6791,14.7964 "/>
</g>
		<g transform="matrix(1 0 0 1 83.1251 3.2154)" id="Path">
<path style="stroke: none; stroke-width: 1; stroke-dasharray: none; stroke-linecap: butt; stroke-dashoffset: 0; stroke-linejoin: miter; stroke-miterlimit: 4; is-custom-font: none; font-file-url: none; fill: rgb(255,255,255); fill-rule: nonzero; opacity: 1;" transform=" translate(-128.1251, -22.7154)" d="M 133.191858 8.57178947 L 138.923338 8.57178947 L 131.351974 29.7344211 C 129.846981 33.7986316 127.149695 36.8611579 121.466633 36.8611579 L 121.466633 31.7891053 C 123.41344 31.7891053 125.116139 31.0111579 125.840392 29.0221579 L 117.326894 8.56973684 L 123.183454 8.56973684 L 128.5982 22.7718947 L 133.191858 8.57178947 Z" stroke-linecap="round"/>
</g>
</g>
</g>
<g transform="matrix(8.1684 0 0 2.3541 616.0466 499.9985)" id="506489">
<path style="stroke: none; stroke-width: 1; stroke-dasharray: none; stroke-linecap: butt; stroke-dashoffset: 0; stroke-linejoin: miter; stroke-miterlimit: 4; is-custom-font: none; font-file-url: none; fill: rgb(0,0,0); fill-rule: nonzero; opacity: 1;" vector-effect="non-scaling-stroke" transform=" translate(-45, -45)" d="M 44.998 0 C 8.314 0 0 8.318 0 45 s 8.314 45 44.998 45 C 81.686 90 90 81.682 90 45 S 81.686 0 44.998 0 z" stroke-linecap="round"/>
</g>
<g transform="matrix(1 0 0 1 616.087 500)" style="" id="249426">
		
<path xml:space="preserve" font-family="Poppins" font-size="151" font-style="normal" font-weight="bold" style="stroke: none; stroke-width: 1; stroke-dasharray: none; stroke-linecap: butt; stroke-dashoffset: 0; stroke-linejoin: miter; stroke-miterlimit: 4; is-custom-font: none; font-file-url: none; fill: rgb(255,255,255); fill-rule: nonzero; opacity: 1; white-space: pre;" d="M-251.41-25.04L-279.95-25.04Q-282.82-30.33-288.18-33.12Q-293.54-35.92-300.79-35.92L-300.79-35.92Q-313.32-35.92-320.87-27.69Q-328.42-19.46-328.42-5.72L-328.42-5.72Q-328.42 8.93-320.50 17.16Q-312.57 25.39-298.68 25.39L-298.68 25.39Q-289.16 25.39-282.60 20.56Q-276.03 15.73-273.01 6.67L-273.01 6.67L-305.77 6.67L-305.77-12.36L-249.60-12.36L-249.60 11.65Q-252.47 21.31-259.34 29.62Q-266.21 37.92-276.78 43.06Q-287.35 48.19-300.64 48.19L-300.64 48.19Q-316.34 48.19-328.65 41.32Q-340.96 34.45-347.83 22.22Q-354.70 9.99-354.70-5.72L-354.70-5.72Q-354.70-21.42-347.83-33.73Q-340.96-46.03-328.73-52.90Q-316.50-59.77-300.79-59.77L-300.79-59.77Q-281.77-59.77-268.70-50.56Q-255.64-41.35-251.41-25.04L-251.41-25.04ZM-222.27-45.58Q-229.07-45.58-233.37-49.58Q-237.67-53.58-237.67-59.47L-237.67-59.47Q-237.67-65.51-233.37-69.51Q-229.07-73.52-222.27-73.52L-222.27-73.52Q-215.63-73.52-211.32-69.51Q-207.02-65.51-207.02-59.47L-207.02-59.47Q-207.02-53.58-211.32-49.58Q-215.63-45.58-222.27-45.58L-222.27-45.58ZM-235.26-36.82L-209.44-36.82L-209.44 47.44L-235.26 47.44L-235.26-36.82ZM-148.43-36.82L-148.43-15.38L-162.32-15.38L-162.32 47.44L-188.15 47.44L-188.15-15.38L-197.51-15.38L-197.51-36.82L-188.15-36.82L-188.15-39.24Q-188.15-54.79-179.24-62.87Q-170.33-70.95-153.11-70.95L-153.11-70.95Q-150.24-70.95-148.89-70.80L-148.89-70.80L-148.89-48.90Q-156.28-49.36-159.30-46.79Q-162.32-44.22-162.32-37.58L-162.32-37.58L-162.32-36.82L-148.43-36.82ZM-98.60 25.54L-89.39 25.54L-89.39 47.44L-102.53 47.44Q-116.57 47.44-124.42 40.56Q-132.28 33.69-132.28 18.14L-132.28 18.14L-132.28-15.38L-142.54-15.38L-142.54-36.82L-132.28-36.82L-132.28-57.36L-106.45-57.36L-106.45-36.82L-89.54-36.82L-89.54-15.38L-106.45-15.38L-106.45 18.44Q-106.45 22.22-104.64 23.88Q-102.83 25.54-98.60 25.54L-98.60 25.54ZM-10.87-6.92Q-1.66-4.96 3.93 2.21Q9.51 9.38 9.51 18.59L9.51 18.59Q9.51 31.88 0.23 39.66Q-9.06 47.44-25.67 47.44L-25.67 47.44L-75.05 47.44L-75.05-58.57L-27.33-58.57Q-11.17-58.57-2.04-51.17Q7.10-43.77 7.10-31.08L7.10-31.08Q7.10-21.72 2.19-15.53Q-2.72-9.34-10.87-6.92L-10.87-6.92ZM-49.23-37.88L-49.23-15.68L-32.31-15.68Q-25.97-15.68-22.57-18.48Q-19.18-21.27-19.18-26.71L-19.18-26.71Q-19.18-32.14-22.57-35.01Q-25.97-37.88-32.31-37.88L-32.31-37.88L-49.23-37.88ZM-30.20 26.60Q-23.71 26.60-20.16 23.65Q-16.61 20.71-16.61 15.12L-16.61 15.12Q-16.61 9.53-20.31 6.36Q-24.01 3.19-30.50 3.19L-30.50 3.19L-49.23 3.19L-49.23 26.60L-30.20 26.60ZM19.33 5.16Q19.33-7.83 24.24-17.65Q29.14-27.46 37.60-32.75Q46.06-38.03 56.47-38.03L56.47-38.03Q65.38-38.03 72.10-34.41Q78.82-30.78 82.45-24.89L82.45-24.89L82.45-36.82L108.27-36.82L108.27 47.44L82.45 47.44L82.45 35.51Q78.67 41.40 71.95 45.02Q65.23 48.64 56.32 48.64L56.32 48.64Q46.06 48.64 37.60 43.28Q29.14 37.92 24.24 28.03Q19.33 18.14 19.33 5.16L19.33 5.16ZM82.45 5.31Q82.45-4.36 77.09-9.94Q71.73-15.53 64.02-15.53L64.02-15.53Q56.32-15.53 50.96-10.02Q45.60-4.51 45.60 5.16L45.60 5.16Q45.60 14.82 50.96 20.48Q56.32 26.14 64.02 26.14L64.02 26.14Q71.73 26.14 77.09 20.56Q82.45 14.97 82.45 5.31L82.45 5.31ZM186.94-16.29L151.15 26.14L187.69 26.14L187.69 47.44L122.31 47.44L122.31 26.90L157.34-15.53L122.61-15.53L122.61-36.82L186.94-36.82L186.94-16.29ZM196.75 5.16Q196.75-7.83 201.66-17.65Q206.57-27.46 215.02-32.75Q223.48-38.03 233.90-38.03L233.90-38.03Q242.81-38.03 249.53-34.41Q256.25-30.78 259.87-24.89L259.87-24.89L259.87-36.82L285.69-36.82L285.69 47.44L259.87 47.44L259.87 35.51Q256.10 41.40 249.38 45.02Q242.66 48.64 233.75 48.64L233.75 48.64Q223.48 48.64 215.02 43.28Q206.57 37.92 201.66 28.03Q196.75 18.14 196.75 5.16L196.75 5.16ZM259.87 5.31Q259.87-4.36 254.51-9.94Q249.15-15.53 241.45-15.53L241.45-15.53Q233.75-15.53 228.39-10.02Q223.03-4.51 223.03 5.16L223.03 5.16Q223.03 14.82 228.39 20.48Q233.75 26.14 241.45 26.14L241.45 26.14Q249.15 26.14 254.51 20.56Q259.87 14.97 259.87 5.31L259.87 5.31ZM330.24-22.78Q334.77-29.73 341.56-33.73Q348.36-37.73 356.66-37.73L356.66-37.73L356.66-10.40L349.57-10.40Q339.90-10.40 335.07-6.25Q330.24-2.09 330.24 8.33L330.24 8.33L330.24 47.44L304.42 47.44L304.42-36.82L330.24-36.82L330.24-22.78Z"/></g>
</svg>